<svg xmlns="http://www.w3.org/2000/svg" xmlns:xlink="http://www.w3.org/1999/xlink" xmlns:lucid="lucid" width="2040" height="2640"><g transform="translate(0 0)" lucid:page-tab-id="_0"><path d="M0 0h2040v2640H0z" fill="#fff"/><path d="M299.1 150.67c2.22-1.66 5.8-1.66 8 0L422.23 237c2.2 1.66 2.2 4.34 0 6l-115.1 86.33c-2.22 1.66-5.8 1.66-8 0L184 243c-2.2-1.66-2.2-4.34 0-6z" stroke="#000" stroke-width="2" fill="#ffeca9"/><use xlink:href="#a" transform="matrix(1,0,0,1,179.99999999999994,147.66666666666666) translate(71.92736328125001 63.7180078125)"/><use xlink:href="#b" transform="matrix(1,0,0,1,179.99999999999994,147.66666666666666) translate(108.68322265625 84.67113281249999)"/><use xlink:href="#c" transform="matrix(1,0,0,1,179.99999999999994,147.66666666666666) translate(37.838984375 105.62425781249999)"/><use xlink:href="#d" transform="matrix(1,0,0,1,179.99999999999994,147.66666666666666) translate(70.45958984375 126.57738281249999)"/><path d="M20 365c0-2.76 2.24-5 5-5h150c2.76 0 5 2.24 5 5v110c0 2.76-2.24 5-5 5H25c-2.76 0-5-2.24-5-5z" stroke="#000" stroke-width="2" fill="#fff"/><use xlink:href="#e" transform="matrix(1,0,0,1,20,360) translate(36.042109374999995 54.2080078125)"/><use xlink:href="#f" transform="matrix(1,0,0,1,20,360) translate(45.490351562499995 75.1611328125)"/><path d="M351.1 20c17.68 0 32 17.9 32 40s-14.32 40-32 40h-96c-17.66 0-32-17.9-32-40s14.34-40 32-40z" stroke="#000" stroke-width="2" fill="#99d5ca"/><use xlink:href="#g" transform="matrix(1,0,0,1,223.1111111111111,20) translate(17.554316406250003 36.7080078125)"/><use xlink:href="#h" transform="matrix(1,0,0,1,223.1111111111111,20) translate(132.18126953125 36.7080078125)"/><use xlink:href="#i" transform="matrix(1,0,0,1,223.1111111111111,20) translate(24.800898437499995 57.6611328125)"/><path d="M340 325c0-2.76 2.24-5 5-5h490c2.76 0 5 2.24 5 5v410c0 2.76-2.24 5-5 5H345c-2.76 0-5-2.24-5-5z" stroke="#000" stroke-width="2" fill="#fff"/><path d="M303.1 101v29.18" stroke="#000" stroke-width="2" fill="none"/><path d="M304.1 101h-2v-1h2zM303.1 145.18l-4.62-14.27h9.27z"/><path d="M303.1 148.4l-6-18.5h12.02zm-3.25-16.5l3.26 10.04 3.27-10.03zM121.35 241h-16.2l-2.5.82-1.45 2-.2 1.26v95.68h-2v-95.84l.3-1.9 2.13-2.9 3.4-1.12h16.52zm60.18 0h-25.55v-2h25.55zM182.53 241h-1v-2h1zM100 355.76l-4.64-14.26h9.28z"/><path d="M100 359l-6-18.5h12zm-3.26-16.5l3.26 10.03 3.26-10.03z"/><use xlink:href="#j" transform="matrix(1,0,0,1,121.35221354166663,229.5234375) translate(0 16.7080078125)"/><path d="M572.57 240.1l2.12 2.92.3 1.9v97.56h-2v-97.4l-.2-1.26-1.46-2-2.5-.82h-49.22v-2h49.54zm-147.88.9v-2h59.1v2z"/><path d="M424.7 241h-1v-2h1zM574 357.48l-4.64-14.26h9.28z"/><path d="M574 360.72l-6-18.5h12zm-3.26-16.5l3.26 10.03 3.26-10.03z"/><use xlink:href="#k" transform="matrix(1,0,0,1,483.79177536501777,229.5234375) translate(0 16.7080078125)"/><path d="M569.95 362.94c2.24-1.63 5.86-1.63 8.1 0l106.24 77.03c2.22 1.62 2.22 4.24 0 5.87l-106.25 77.03c-2.24 1.62-5.86 1.62-8.1 0L463.7 445.84c-2.22-1.63-2.22-4.25 0-5.87z" stroke="#000" stroke-width="2" fill="#ffeca9"/><use xlink:href="#l" transform="matrix(1,0,0,1,459.66666666666663,360) translate(77.02843750000001 51.7180078125)"/><use xlink:href="#m" transform="matrix(1,0,0,1,459.66666666666663,360) translate(66.94298828125 72.67113281249999)"/><use xlink:href="#n" transform="matrix(1,0,0,1,459.66666666666663,360) translate(140.88537109375 72.67113281249999)"/><use xlink:href="#o" transform="matrix(1,0,0,1,459.66666666666663,360) translate(49.518671875 93.62425781249999)"/><use xlink:href="#p" transform="matrix(1,0,0,1,459.66666666666663,360) translate(107.7110546875 93.62425781249999)"/><use xlink:href="#q" transform="matrix(1,0,0,1,459.66666666666663,360) translate(169.858515625 93.62425781249999)"/><use xlink:href="#r" transform="matrix(1,0,0,1,459.66666666666663,360) translate(61.4024609375 114.57738281249999)"/><path d="M363.1 545c0-2.76 2.25-5 5-5H535c2.76 0 5 2.24 5 5v130c0 2.76-2.24 5-5 5H368.1c-2.75 0-5-2.24-5-5z" stroke="#000" stroke-width="2" fill="#fff"/><use xlink:href="#s" transform="matrix(1,0,0,1,363.111111111124,540) translate(88.50500000000001 21.718007812499998)"/><use xlink:href="#t" transform="matrix(1,0,0,1,363.111111111124,540) translate(9.957148437500004 42.6711328125)"/><path d="M620 565c0-2.76 2.24-5 5-5h150c2.76 0 5 2.24 5 5v110c0 2.76-2.24 5-5 5H625c-2.76 0-5-2.24-5-5z" stroke="#000" stroke-width="2" fill="#fff"/><use xlink:href="#u" transform="matrix(1,0,0,1,620,560) translate(10.048457031250004 46.7080078125)"/><use xlink:href="#v" transform="matrix(1,0,0,1,620,560) translate(68.48693359375001 67.6611328125)"/><use xlink:href="#w" transform="matrix(1,0,0,1,620,560) translate(24.190058593749995 88.6142578125)"/><use xlink:href="#x" transform="matrix(1,0,0,1,620,560) translate(85.60802734375 88.6142578125)"/><path d="M452.56 520.76h-2V496.6h2zm8.67-76.86h-4.52l-2.48.82-1.46 2-.2 1.26v27.66h-2v-27.82l.3-1.9 2.13-2.9 3.4-1.12h4.83z"/><path d="M462.26 441.76l-.04 1.74-.5.28-.97-1.76 2.34-1.28zM451.56 535.76l-4.64-14.26h9.27z"/><path d="M451.56 539l-6.02-18.5h12.03zm-3.26-16.5l3.26 10.03 3.25-10.03z"/><use xlink:href="#k" transform="matrix(1,0,0,1,433.643446180562,475.63564321644594) translate(0 16.7080078125)"/><path d="M701 540.76h-2V504.8h2zM698.57 443l2.12 2.92.3 1.9v36.04h-2v-35.88l-.2-1.26-1.46-2-2.5-.82h-8.07v-2h8.4z"/><path d="M686.9 441.9l-.26 2-.9-.13.05-1.88-.12-.15zM700 555.76l-4.64-14.26h9.28z"/><path d="M700 559l-6-18.5h12zm-3.26-16.5l3.26 10.03 3.26-10.03z"/><use xlink:href="#j" transform="matrix(1,0,0,1,682.685546875,483.8578651088574) translate(0 16.7080078125)"/><path d="M340 739.2c0-2.76 2.24-5 5-5h490c2.76 0 5 2.24 5 5v70c0 2.76-2.24 5-5 5H345c-2.76 0-5-2.24-5-5z" stroke="#000" stroke-width="2" fill="#ffdf71"/><use xlink:href="#y" transform="matrix(1,0,0,1,340,734.1993957703927) translate(100.81066406250001 36.7080078125)"/><use xlink:href="#z" transform="matrix(1,0,0,1,340,734.1993957703927) translate(188.639765625 36.7080078125)"/><use xlink:href="#A" transform="matrix(1,0,0,1,340,734.1993957703927) translate(221.335078125 36.7080078125)"/><use xlink:href="#B" transform="matrix(1,0,0,1,340,734.1993957703927) translate(283.6055859375 36.7080078125)"/><use xlink:href="#C" transform="matrix(1,0,0,1,340,734.1993957703927) translate(389.135859375 36.7080078125)"/><use xlink:href="#D" transform="matrix(1,0,0,1,340,734.1993957703927) translate(93.44542968750001 57.6611328125)"/><use xlink:href="#E" transform="matrix(1,0,0,1,340,734.1993957703927) translate(247.4825390625 57.6611328125)"/><use xlink:href="#F" transform="matrix(1,0,0,1,340,734.1993957703927) translate(274.1133984375 57.6611328125)"/><path d="M362.1 611h-10.2v-2h10.2zm-20.4 0h-2.04v-2h2.05zm-12.24 0h-20.4v-2h20.4zm-30.6 0h-2.05v-2h2.05zm-140.8 0h-20.4v-2h20.4zm-30.6 0h-2.05v-2h2.05zM101 604.92l.2 1.26 1.46 2 2.5.82h10.04v2h-10.36l-3.4-1.1-2.13-2.92-.3-1.9v-8.47h2zM286.6 611h-6.46v-2h6.47zM101 588.2h-2v-1.67h2zm0-10.06h-2v-16.8h2zm0-25.18h-2v-1.68h2zm0-10.08h-2V526.1h2zm0-25.18h-2v-1.68h2zm0-10.07h-2v-8.4h2zM363.1 611h-1v-2h1zM104.64 498.5h-9.28l4.64-14.26z"/><path d="M106 499.5H94l6-18.5zm-9.26-2h6.52L100 487.47z"/><g><use xlink:href="#G" transform="matrix(1,0,0,1,159.8564453125,589.046875) translate(0 16.7080078125)"/><use xlink:href="#H" transform="matrix(1,0,0,1,159.8564453125,589.046875) translate(0 37.6611328125)"/></g><path d="M821 715.16l-1.1 3.4-2.92 2.13-1.9.3h-9.56v-2h9.4l1.26-.2 2-1.46.82-2.5V704.4h2zM796.03 721h-1.9v-2h1.9zm-11.37 0H765.7v-2h18.96zm-28.45 0h-1.9v-2h1.9zm-11.37 0h-18.97v-2h18.97zm-28.45 0h-1.9v-2h1.9zM705 721h-18.96v-2H705zm-28.45 0h-1.9v-2h1.9zm-11.38 0H646.2v-2h18.97zm-28.44 0h-1.9v-2h1.9zm-11.38 0h-18.97v-2h18.97zm-28.45 0H595v-2h1.9zm-11.38 0h-18.97v-2h18.97zm-28.45 0h-1.9v-2h1.9zm-11.38 0h-18.97v-2h18.96zm-28.46 0h-1.9v-2h1.9zm-11.37 0H486.9v-2h18.97zm-28.45 0h-1.9v-2h1.9zm-24.86-6.08l.2 1.26 1.46 2 2.5.82h9.32v2h-9.64l-3.4-1.1-2.14-2.92-.3-1.9v-15.84h2zM821 693.8h-2v-2.12h2zm0-12.72h-2v-21.2h2zm0-31.8h-2v-2.1h2zm0-12.7h-2v-21.2h2zm0-31.8h-2v-2.13h2zm0-12.73h-2v-21.2h2zm0-31.8h-2v-2.12h2zm0-12.72h-2v-21.2h2zm0-31.8h-2v-2.1h2zm0-30.2h-2v-3.7h2zm0-14.3h-2v-2.13h2zM818.57 443l2.12 2.92.3 1.9v10.68h-2v-10.52l-.2-1.26-1.46-2-2.5-.82h-10.02v-2h10.34zm-121.62.9h-10.18v-2h10.18zm12.2 0h-2.03v-2h2.04zm30.54 0h-20.36v-2h20.35zm12.2 0h-2.03v-2h2.03zm30.53 0h-20.35v-2h20.35zm12.22 0h-2.04v-2h2.05zM686.77 443.9h-1.03l.05-2h.97zM456.2 698.5h-9.28l4.64-14.26z"/><path d="M457.57 699.5h-12.03l6.02-18.5zm-9.27-2h6.5l-3.24-10.03z"/><g><use xlink:href="#j" transform="matrix(1,0,0,1,802.685546875,485.5234375) translate(0 16.7080078125)"/></g><path d="M451.56 681v-66c0-2.76-2.24-5-5-5h-66.2" fill="none"/><path d="M451.56 681v-7.86m0-7.85v-1.6m0-7.84v-15.72m0-7.85v-1.6m0-7.84V615l-.97-2.95-2.46-1.8-1.58-.25h-7.9m-7.87 0h-1.58m-7.9 0h-15.75m-7.88 0h-1.6m-7.87 0h-7.88" stroke="#000" stroke-width="2" fill="none"/><path/><path d="M379.6 614.64L365.36 610l14.26-4.64z"/><path d="M380.6 616l-17.5-5.68v-.64l17.5-5.7zm-12.02-6l10.03 3.26v-6.52z"/><defs><path d="M322-226C292-111 376-75 500-86V0H0v-86c136 16 160-66 195-160l454-1216h160l463 1267c24 75 65 118 172 109V0H881v-86c113 10 195-27 165-133-27-93-63-180-94-270H414c-30 88-68 171-92 263zm593-366c-76-225-168-445-229-682-56 246-156 455-233 682h462" id="I"/><path d="M887-864c2-112-62-153-174-148v-86h366v875c-3 108 66 141 174 137V0H928l-27-166h-10C829-49 733 21 559 20c-245-1-338-153-338-401v-491c2-108-66-143-174-140v-86h367v707c-1 168 46 283 215 280 191-4 258-139 258-331v-422" id="J"/><path d="M387-291c-2 124 47 200 156 203 51 1 88-6 131-14v90C626 8 560 18 492 20 278 25 195-83 195-297v-684H39v-82c170-8 224-133 254-287h94v252h268v117H387v690" id="K"/><path d="M594-1118c338 0 472 222 475 567 2 360-143 571-481 571S115-205 113-551c-2-359 142-567 481-567zm-4 108c-241 0-279 212-279 459 0 249 39 465 281 465s278-216 278-465c0-248-38-459-280-459" id="L"/><path d="M886-871c30-101-37-149-145-141v-86h439v86c-127-12-147 70-181 160L676 0H489L160-903c-24-68-57-114-152-109v-86h512v86c-124-19-174 64-133 174 84 228 172 444 229 695h7c82-248 190-477 263-728" id="M"/><path d="M467-106c176 0 267-107 272-285v-166c-189 6-378 9-423 154-10 31-15 66-15 106 0 123 47 191 166 191zm272-535c5-199 13-375-190-375-142 0-190 83-187 223-106-2-174-27-174-129 0-169 191-191 369-196 250-7 375 104 375 354v531c-3 100 32 153 133 147V0H788l-32-176h-17C664-76 596 23 420 20 213 16 102-97 102-307c0-109 41-186 116-242 100-75 325-89 521-92" id="N"/><path d="M414-233c-4 120 72 154 194 147V0H27v-86c122 7 194-28 194-147v-1098c3-115-76-146-194-139v-86h387v1323" id="O"/><path d="M434-223C430-95 529-79 659-86V0H68v-86c112 4 174-35 174-147v-639c2-108-66-143-174-140v-86h315l39 203h10c50-120 106-223 281-223 151 0 257 68 211 208-21 64-90 87-181 87-2-101-16-160-108-160-128 0-157 140-183 255-33 148-12 333-18 505" id="P"/><path d="M786-645c-4-191-36-363-223-363-76 0-134 30-175 92s-66 152-73 271h471zm123 393c43 21 51 90 17 136C862-29 744 20 588 20c-331 0-471-225-475-561-4-348 134-577 454-577 327 0 443 231 426 583H311c7 242 67 426 305 426 140 0 234-60 293-143" id="Q"/><path d="M834-301C834-70 665 20 430 20 250 20 92-26 92-197c0-88 47-135 129-141 1 157 63 257 221 260 156 3 257-97 214-252-47-85-142-109-240-157-153-75-310-122-310-340 0-212 169-289 386-289 130 0 232 36 280 116 31 53 24 126-20 162-26 22-62 33-109 33 0-130-49-217-176-217-120 1-195 48-195 164 0 149 143 163 254 217 154 74 308 124 308 340" id="R"/><g id="a"><use transform="matrix(0.0087890625,0,0,0.0087890625,0,0)" xlink:href="#I"/><use transform="matrix(0.0087890625,0,0,0.0087890625,12.3310546875,0)" xlink:href="#J"/><use transform="matrix(0.0087890625,0,0,0.0087890625,23.7568359375,0)" xlink:href="#K"/><use transform="matrix(0.0087890625,0,0,0.0087890625,29.7333984375,0)" xlink:href="#L"/><use transform="matrix(0.0087890625,0,0,0.0087890625,39.9462890625,0)" xlink:href="#M"/><use transform="matrix(0.0087890625,0,0,0.0087890625,49.81640625,0)" xlink:href="#N"/><use transform="matrix(0.0087890625,0,0,0.0087890625,59.9501953125,0)" xlink:href="#O"/><use transform="matrix(0.0087890625,0,0,0.0087890625,65.53125,0)" xlink:href="#L"/><use transform="matrix(0.0087890625,0,0,0.0087890625,75.919921875,0)" xlink:href="#P"/><use transform="matrix(0.0087890625,0,0,0.0087890625,84.4013671875,0)" xlink:href="#Q"/><use transform="matrix(0.0087890625,0,0,0.0087890625,94.0341796875,0)" xlink:href="#R"/></g><path d="M467-106c176 0 267-107 272-285v-166c-189 6-378 9-423 154-10 31-15 66-15 106 0 123 47 191 166 191zm272-535c5-199 13-375-190-375-142 0-190 83-187 223-106-2-174-27-174-129 0-169 191-191 369-196 250-7 375 104 375 354v531c-3 100 32 153 133 147V0H788l-32-176h-17C664-76 596 23 420 20 213 16 102-97 102-307c0-109 41-186 116-242 100-75 325-89 521-92zm-533-621c12-137 71-241 217-241 114 0 179 68 254 109 23 12 45 20 66 20 73 2 93-46 100-109h92c-13 136-69 242-215 242-114 0-180-68-255-109-23-12-44-20-66-20-73-2-93 46-101 108h-92" id="S"/><g id="b"><use transform="matrix(0.0087890625,0,0,0.0087890625,0,0)" xlink:href="#R"/><use transform="matrix(0.0087890625,0,0,0.0087890625,8.12109375,0)" xlink:href="#S"/><use transform="matrix(0.0087890625,0,0,0.0087890625,18.2548828125,0)" xlink:href="#L"/></g><path d="M643-1464c-244 139-313 433-313 815s69 678 313 817v94C288 130 117-156 117-649c0-361 84-614 285-771 67-53 147-99 241-136v92" id="T"/><path d="M946-553c0-230-32-430-254-434-242-4-278 193-278 436s40 440 280 440c221 0 252-212 252-442zm-219-565c321 0 418 237 418 567 0 331-96 571-418 571-163 0-254-75-313-180h-8c7 140 10 280 8 428-2 108 66 142 174 138v86H37v-86c118 6 184-32 184-148V-872c3-116-76-146-194-140v-86h358l21 185h8c57-116 142-205 313-205" id="U"/><path d="M569-1012c-63 1-123 4-123 60 0 43 23 60 48 94l135 184c47-72 105-140 143-219 9-21 14-40 14-59 0-56-58-59-116-60v-86h448v86c-127-7-170 57-225 131L682-600l301 405c54 66 89 110 191 109V0H645v-86c110 6 163-43 118-118-57-95-135-185-200-275-60 87-128 167-180 261-10 19-18 42-18 68 0 62 57 62 133 64V0H10v-86c134 8 184-56 242-131l258-334-258-352c-56-60-97-113-203-109v-86h520v86" id="V"/><path d="M434-233c-3 120 73 154 195 147V0H47v-86c118 6 195-21 195-137v-649c2-108-66-143-174-140v-86h366v865zM330-1303c-79 0-117-45-117-127s37-126 117-126c79 0 116 46 116 126 0 81-37 127-116 127" id="W"/><path d="M434-223c-3 108 66 141 174 137V0H57v-86c121 8 185-28 185-147v-639c3-106-58-144-164-140v-86h321l27 166h10c60-112 141-188 309-186 158 2 252 69 297 186h17c61-114 150-188 321-186 240 3 333 155 334 401v484c-3 110 54 152 164 147V0h-356v-707c0-166-49-282-215-280-172 2-228 132-228 305v449c-3 110 54 152 164 147V0H887v-707c0-166-49-282-215-280-182 3-238 148-238 332v432" id="X"/><path d="M844-1331c2-112-71-145-185-139v-86h377v1331c-2 112 71 145 185 139V0H874l-22-184h-8C786-68 701 20 530 20c-321 0-417-237-417-567 0-331 95-571 417-571 163 0 254 76 314 180h12c-10-128-14-255-12-393zM563-987c-219 0-252 212-252 442 0 145 20 254 59 326s104 108 195 108c242 2 279-192 279-436s-41-440-281-440" id="Y"/><path d="M434-223c-3 108 66 141 174 137V0H57v-86c118 6 185-31 185-147v-639c2-108-66-143-174-140v-86h331l27 166h10c63-113 148-188 320-186 244 3 343 152 344 401v484c-4 110 54 152 164 147V0H907v-707c0-170-55-282-225-280-187 3-248 145-248 332v432" id="Z"/><path d="M66 168C309 28 379-267 379-649s-70-676-313-815v-92c355 132 526 415 526 907 0 361-85 617-285 775-67 53-147 99-241 136v-94" id="aa"/><g id="c"><use transform="matrix(0.0087890625,0,0,0.0087890625,0,0)" xlink:href="#T"/><use transform="matrix(0.0087890625,0,0,0.0087890625,6.2314453125,0)" xlink:href="#N"/><use transform="matrix(0.0087890625,0,0,0.0087890625,16.365234375,0)" xlink:href="#U"/><use transform="matrix(0.0087890625,0,0,0.0087890625,27.4130859375,0)" xlink:href="#P"/><use transform="matrix(0.0087890625,0,0,0.0087890625,35.71875,0)" xlink:href="#L"/><use transform="matrix(0.0087890625,0,0,0.0087890625,45.7470703125,0)" xlink:href="#V"/><use transform="matrix(0.0087890625,0,0,0.0087890625,56.1533203125,0)" xlink:href="#W"/><use transform="matrix(0.0087890625,0,0,0.0087890625,61.91015625,0)" xlink:href="#X"/><use transform="matrix(0.0087890625,0,0,0.0087890625,78.9169921875,0)" xlink:href="#N"/><use transform="matrix(0.0087890625,0,0,0.0087890625,89.05078125,0)" xlink:href="#Y"/><use transform="matrix(0.0087890625,0,0,0.0087890625,100.0986328125,0)" xlink:href="#N"/><use transform="matrix(0.0087890625,0,0,0.0087890625,110.232421875,0)" xlink:href="#X"/><use transform="matrix(0.0087890625,0,0,0.0087890625,127.2392578125,0)" xlink:href="#Q"/><use transform="matrix(0.0087890625,0,0,0.0087890625,136.8720703125,0)" xlink:href="#Z"/><use transform="matrix(0.0087890625,0,0,0.0087890625,148.306640625,0)" xlink:href="#K"/><use transform="matrix(0.0087890625,0,0,0.0087890625,154.4677734375,0)" xlink:href="#Q"/><use transform="matrix(0.0087890625,0,0,0.0087890625,164.1005859375,0)" xlink:href="#aa"/></g><path d="M893-256c39 28 47 103 13 150C845-22 730 20 580 20c-332 0-467-220-467-563 0-349 119-575 456-575 140 0 259 39 325 116 44 51 42 161-14 193-31 18-76 29-137 29-1-134-38-239-174-236-232 6-258 224-258 471 0 264 65 427 310 432 127 2 227-62 272-143" id="ab"/><path d="M414-223c-3 108 66 141 174 137V0H37v-86c117 6 184-31 184-147v-1098c2-112-70-144-184-139v-86h377c-3 208 7 429-8 624h10c61-124 162-186 301-186 253 1 362 144 362 401v484c-3 110 54 152 164 147V0H887v-707c0-170-55-283-225-280-186 3-248 143-248 332v432" id="ac"/><path d="M920-1112c0 277-196 378-398 469v231H397v-311c177-74 314-188 314-424 0-151-72-235-224-235-161 0-226 103-229 262-97-2-170-38-170-133 0-185 183-230 383-230 203 0 347 77 415 214 23 46 34 98 34 157zM457 14c-88 0-129-49-129-139 0-91 41-139 129-139 87 0 129 49 129 139-1 89-42 139-129 139" id="ad"/><g id="d"><use transform="matrix(0.0087890625,0,0,0.0087890625,0,0)" xlink:href="#ab"/><use transform="matrix(0.0087890625,0,0,0.0087890625,8.859375,0)" xlink:href="#L"/><use transform="matrix(0.0087890625,0,0,0.0087890625,19.248046875,0)" xlink:href="#Z"/><use transform="matrix(0.0087890625,0,0,0.0087890625,30.8583984375,0)" xlink:href="#ac"/><use transform="matrix(0.0087890625,0,0,0.0087890625,42.2841796875,0)" xlink:href="#Q"/><use transform="matrix(0.0087890625,0,0,0.0087890625,51.9169921875,0)" xlink:href="#ab"/><use transform="matrix(0.0087890625,0,0,0.0087890625,60.7763671875,0)" xlink:href="#W"/><use transform="matrix(0.0087890625,0,0,0.0087890625,66.533203125,0)" xlink:href="#Y"/><use transform="matrix(0.0087890625,0,0,0.0087890625,77.5810546875,0)" xlink:href="#L"/><use transform="matrix(0.0087890625,0,0,0.0087890625,87.9697265625,0)" xlink:href="#R"/><use transform="matrix(0.0087890625,0,0,0.0087890625,96.0908203125,0)" xlink:href="#ad"/></g><path d="M573-242c-1 84 23 133 105 133h86V0H57v-109h86c83 3 106-49 105-133v-978c1-84-22-133-105-133H57v-109h707v109h-86c-82-2-106 49-105 133v978" id="ae"/><path d="M1169-254c-4 106 37 152 144 145V0H858v-674c-2-147-22-276-164-276-152 0-178 160-178 317v391c-3 102 51 138 154 133V0H41v-109c107 5 164-34 164-141v-606c3-102-52-138-154-133v-109h430l27 146h10c58-113 144-175 313-172 240 5 338 149 338 395v475" id="af"/><path d="M508-324c1 114 29 177 135 179 53 0 102-9 145-19v133C712 3 611 19 498 20 289 22 197-91 197-303v-655H43v-105c87 2 160-42 201-86 42-44 73-112 94-203h170v254h262v140H508v634" id="ag"/><path d="M682-968c-75-53-166-16-210 62-32 57-53 140-56 249h354c-1-134-12-257-88-311zm4 835c147 0 236-69 289-166 63 29 71 123 31 183C939-17 799 20 627 20 270 20 96-185 96-543c0-359 153-581 508-581 315 0 475 175 479 493v105H412c10 217 60 393 274 393" id="ah"/><path d="M516-246c-4 127 81 146 209 137V0H41v-109c110 5 164-37 164-147v-594c3-104-49-145-154-139v-109h414l41 160h10c46-115 125-184 289-184 142 0 235 41 235 166 0 137-111 200-260 198-1-92-10-170-100-170-129 0-152 146-162 271-11 134 3 274-2 411" id="ai"/><path d="M526-129c139 0 193-116 193-262v-154c-144 3-272 20-298 142-6 28-11 61-11 98 1 103 24 176 116 176zm193-524c-6-153 30-348-127-346-115 1-136 103-137 221-92 0-160-13-207-31-80-31-88-141-36-202 75-88 224-112 388-113 266-2 430 83 430 348v522c-3 99 29 152 131 145V0H780l-43-141h-18C646-52 578 24 414 20 206 14 92-101 92-313c0-254 188-323 459-334" id="aj"/><path d="M952-299c53 28 65 116 26 173C912-25 777 20 604 20 249 20 96-183 96-545c0-366 147-579 502-579 170 0 310 34 380 130 46 63 27 167-26 205-49 36-119 55-213 54-1-102-14-196-69-243-36-31-106-28-144 0-103 75-114 241-114 431 0 139 19 242 57 311s100 103 186 103c149 0 244-68 297-166zM620 70c122 12 219 61 219 188 0 163-122 234-290 234-63 0-128-10-179-23V344c97 18 268 47 265-78-2-85-74-98-154-104l43-180h117" id="ak"/><path d="M526-129c139 0 193-116 193-262v-154c-144 3-272 20-298 142-6 28-11 61-11 98 1 103 24 176 116 176zm193-524c-6-153 30-348-127-346-115 1-136 103-137 221-92 0-160-13-207-31-80-31-88-141-36-202 75-88 224-112 388-113 266-2 430 83 430 348v522c-3 99 29 152 131 145V0H780l-43-141h-18C646-52 578 24 414 20 206 14 92-101 92-313c0-254 188-323 459-334zm-274-717c-65 3-91 50-101 108H211c9-131 65-232 157-279 140-71 269 30 355 85 22 13 45 20 66 20 64 0 90-50 100-108h133c-9 131-63 232-155 279-139 71-270-30-356-85-22-13-44-20-66-20" id="al"/><path d="M631-1124c358 0 526 209 528 571 2 373-172 573-534 573C267 20 98-190 96-553c-2-374 172-571 535-571zM527-966c-131 91-126 390-101 605 16 136 58 252 203 252 203 0 213-228 213-444 0-180-15-339-115-413-51-37-148-36-200 0" id="am"/><g id="e"><use transform="matrix(0.0087890625,0,0,0.0087890625,0,0)" xlink:href="#ae"/><use transform="matrix(0.0087890625,0,0,0.0087890625,7.2158203125,0)" xlink:href="#af"/><use transform="matrix(0.0087890625,0,0,0.0087890625,19.0458984375,0)" xlink:href="#ag"/><use transform="matrix(0.0087890625,0,0,0.0087890625,26.15625,0)" xlink:href="#ah"/><use transform="matrix(0.0087890625,0,0,0.0087890625,36.4306640625,0)" xlink:href="#ai"/><use transform="matrix(0.0087890625,0,0,0.0087890625,45.84375,0)" xlink:href="#aj"/><use transform="matrix(0.0087890625,0,0,0.0087890625,56.6279296875,0)" xlink:href="#ak"/><use transform="matrix(0.0087890625,0,0,0.0087890625,66.111328125,0)" xlink:href="#al"/><use transform="matrix(0.0087890625,0,0,0.0087890625,76.8955078125,0)" xlink:href="#am"/></g><path d="M930-930c2-67-73-59-139-59v-109h450v109c-122-15-143 61-174 149L770 0H500L164-891c-23-68-72-101-164-98v-109h635v109c-73-1-154-12-154 65 0 32 11 67 19 90 69 211 158 408 209 637 59-239 148-447 215-677 5-19 6-37 6-56" id="an"/><path d="M918-340C918-83 735 20 473 20 291 20 148-13 84-124c-28-48-33-130-4-176 31-52 94-75 172-75 4 159 67 268 221 275 134 7 248-76 191-200-56-121-266-138-386-206C171-566 82-637 82-797c0-243 192-325 440-325 157 0 279 31 339 121 38 57 21 139-29 174-33 23-85 36-160 36 1-128-56-215-180-215-113 0-209 80-154 186 62 119 269 132 394 204 99 57 186 127 186 276" id="ao"/><g id="f"><use transform="matrix(0.0087890625,0,0,0.0087890625,0,0)" xlink:href="#ae"/><use transform="matrix(0.0087890625,0,0,0.0087890625,7.2158203125,0)" xlink:href="#af"/><use transform="matrix(0.0087890625,0,0,0.0087890625,19.0458984375,0)" xlink:href="#an"/><use transform="matrix(0.0087890625,0,0,0.0087890625,29.77734375,0)" xlink:href="#ah"/><use transform="matrix(0.0087890625,0,0,0.0087890625,40.0517578125,0)" xlink:href="#ai"/><use transform="matrix(0.0087890625,0,0,0.0087890625,49.46484375,0)" xlink:href="#ao"/><use transform="matrix(0.0087890625,0,0,0.0087890625,58.2451171875,0)" xlink:href="#aj"/></g><path d="M866-109c86 4 168 3 168-79 1-32-10-65-18-88l-72-205H446c-28 97-84 180-84 293 0 85 91 82 179 79V0H8v-109c122 10 157-61 189-149l444-1204h281l428 1206c31 88 67 157 192 147V0H866v-109zm37-497c-67-212-140-417-194-643-69 219-146 429-220 643h414" id="ap"/><path d="M1161-238c-4 102 49 136 154 129V0H907l-45-145h-10C792-36 695 23 528 20c-234-5-331-151-331-405v-459c4-105-39-151-144-145v-109h455v656c3 146 15 288 156 288 156 0 186-148 186-311v-393c3-101-53-136-154-131v-109h465v860" id="aq"/><path d="M516-242c0 102 66 138 170 133V0H35v-109c104 5 170-31 170-133v-1081c0-98-69-130-170-125v-108h481v1314" id="ar"/><g id="g"><use transform="matrix(0.0087890625,0,0,0.0087890625,0,0)" xlink:href="#ap"/><use transform="matrix(0.0087890625,0,0,0.0087890625,13.1923828125,0)" xlink:href="#aq"/><use transform="matrix(0.0087890625,0,0,0.0087890625,25.1982421875,0)" xlink:href="#ag"/><use transform="matrix(0.0087890625,0,0,0.0087890625,32.1240234375,0)" xlink:href="#am"/><use transform="matrix(0.0087890625,0,0,0.0087890625,42.978515625,0)" xlink:href="#an"/><use transform="matrix(0.0087890625,0,0,0.0087890625,53.33203125,0)" xlink:href="#aj"/><use transform="matrix(0.0087890625,0,0,0.0087890625,64.1162109375,0)" xlink:href="#ar"/><use transform="matrix(0.0087890625,0,0,0.0087890625,70.453125,0)" xlink:href="#am"/><use transform="matrix(0.0087890625,0,0,0.0087890625,81.4833984375,0)" xlink:href="#ai"/><use transform="matrix(0.0087890625,0,0,0.0087890625,90.896484375,0)" xlink:href="#ah"/><use transform="matrix(0.0087890625,0,0,0.0087890625,101.1708984375,0)" xlink:href="#ao"/></g><use transform="matrix(0.0087890625,0,0,0.0087890625,0,0)" xlink:href="#ah" id="h"/><g id="i"><use transform="matrix(0.0087890625,0,0,0.0087890625,0,0)" xlink:href="#ap"/><use transform="matrix(0.0087890625,0,0,0.0087890625,13.1923828125,0)" xlink:href="#aq"/><use transform="matrix(0.0087890625,0,0,0.0087890625,25.1982421875,0)" xlink:href="#ag"/><use transform="matrix(0.0087890625,0,0,0.0087890625,32.1240234375,0)" xlink:href="#am"/><use transform="matrix(0.0087890625,0,0,0.0087890625,42.978515625,0)" xlink:href="#an"/><use transform="matrix(0.0087890625,0,0,0.0087890625,53.7099609375,0)" xlink:href="#ah"/><use transform="matrix(0.0087890625,0,0,0.0087890625,63.984375,0)" xlink:href="#ag"/><use transform="matrix(0.0087890625,0,0,0.0087890625,70.91015625,0)" xlink:href="#am"/><use transform="matrix(0.0087890625,0,0,0.0087890625,81.9404296875,0)" xlink:href="#ai"/><use transform="matrix(0.0087890625,0,0,0.0087890625,91.353515625,0)" xlink:href="#ah"/><use transform="matrix(0.0087890625,0,0,0.0087890625,101.6279296875,0)" xlink:href="#ao"/></g><path d="M571-1358c-151-6-245 124-188 270 69 176 346 212 503 314 119 77 212 161 212 346 0 232-143 355-326 415-190 62-490 28-608-60-76-57-135-174-84-282 33-69 111-102 213-102 4 206 81 355 280 355 151 0 254-75 254-222 0-135-93-184-191-234-232-119-539-172-534-513 3-214 133-332 302-383 213-65 522-27 610 116 45 73 23 177-36 214-47 29-110 49-190 49-8-151-64-277-217-283" id="as"/><path d="M350-1282c-103 0-174-45-174-148 0-104 70-147 174-147 103 0 176 44 176 147 0 102-74 148-176 148zM516-242c0 102 66 138 170 133V0H35v-109c104 5 170-31 170-133v-622c0-98-69-130-170-125v-109h481v856" id="at"/><path d="M1169-254c-4 106 37 152 144 145V0H858v-674c-2-147-22-276-164-276-152 0-178 160-178 317v391c-3 102 51 138 154 133V0H41v-109c107 5 164-34 164-141v-612c3-102-52-138-154-133v-103h430l27 146h10c58-113 144-176 313-172 157 3 265 55 310 172h18c58-115 154-175 326-172 240 4 338 149 338 395v475c-4 105 37 152 143 145V0h-455v-674c-3-152-24-276-163-276-145 0-179 143-179 293v403" id="au"/><g id="j"><use transform="matrix(0.0087890625,0,0,0.0087890625,0,0)" xlink:href="#as"/><use transform="matrix(0.0087890625,0,0,0.0087890625,10.546875,0)" xlink:href="#at"/><use transform="matrix(0.0087890625,0,0,0.0087890625,16.8837890625,0)" xlink:href="#au"/></g><path d="M1493-1354c-81-2-104 49-104 133V0h-189L401-1128v886c0 84 23 133 105 133h86V0H57v-109h86c82 2 105-49 105-133v-987c1-81-27-125-105-125H57v-108h455l723 1022v-789c1-81-27-125-105-125h-86v-108h535v108h-86" id="av"/><g id="k"><use transform="matrix(0.0087890625,0,0,0.0087890625,0,0)" xlink:href="#av"/><use transform="matrix(0.0087890625,0,0,0.0087890625,14.009765625,0)" xlink:href="#al"/><use transform="matrix(0.0087890625,0,0,0.0087890625,24.7939453125,0)" xlink:href="#am"/></g><path d="M1047-1188c37-106 8-202-117-188h-47v-86h499v86c-135-16-160 62-194 159L764 0H614L172-1268c-22-75-67-117-172-108v-86h563v86c-110-10-197 24-165 133C500-894 642-571 727-201c78-350 208-663 320-987" id="aw"/><path d="M893-256c39 28 47 103 13 150C845-22 730 20 580 20c-332 0-467-220-467-563 0-349 119-575 456-575 140 0 259 39 325 116 44 51 42 161-14 193-31 18-76 29-137 29-1-134-38-239-174-236-232 6-258 224-258 471 0 264 65 427 310 432 127 2 227-62 272-143zM585 70c121 8 199 68 199 188 0 154-107 237-270 234-58-1-112-10-158-23V365c41 9 93 16 139 16 75 1 125-42 125-115 1-86-73-118-154-125l43-159h97" id="ax"/><g id="l"><use transform="matrix(0.0087890625,0,0,0.0087890625,0,0)" xlink:href="#aw"/><use transform="matrix(0.0087890625,0,0,0.0087890625,11.0654296875,0)" xlink:href="#N"/><use transform="matrix(0.0087890625,0,0,0.0087890625,21.19921875,0)" xlink:href="#P"/><use transform="matrix(0.0087890625,0,0,0.0087890625,29.6806640625,0)" xlink:href="#W"/><use transform="matrix(0.0087890625,0,0,0.0087890625,35.4375,0)" xlink:href="#N"/><use transform="matrix(0.0087890625,0,0,0.0087890625,45.5712890625,0)" xlink:href="#ax"/><use transform="matrix(0.0087890625,0,0,0.0087890625,54.4306640625,0)" xlink:href="#S"/><use transform="matrix(0.0087890625,0,0,0.0087890625,64.564453125,0)" xlink:href="#L"/></g><g id="m"><use transform="matrix(0.0087890625,0,0,0.0087890625,0,0)" xlink:href="#Q"/><use transform="matrix(0.0087890625,0,0,0.0087890625,9.6328125,0)" xlink:href="#R"/><use transform="matrix(0.0087890625,0,0,0.0087890625,17.75390625,0)" xlink:href="#U"/><use transform="matrix(0.0087890625,0,0,0.0087890625,28.8017578125,0)" xlink:href="#N"/><use transform="matrix(0.0087890625,0,0,0.0087890625,38.935546875,0)" xlink:href="#ab"/><use transform="matrix(0.0087890625,0,0,0.0087890625,47.794921875,0)" xlink:href="#W"/><use transform="matrix(0.0087890625,0,0,0.0087890625,53.5517578125,0)" xlink:href="#N"/><use transform="matrix(0.0087890625,0,0,0.0087890625,63.685546875,0)" xlink:href="#O"/></g><g id="n"><use transform="matrix(0.0087890625,0,0,0.0087890625,0,0)" xlink:href="#Y"/><use transform="matrix(0.0087890625,0,0,0.0087890625,11.0478515625,0)" xlink:href="#N"/></g><g id="o"><use transform="matrix(0.0087890625,0,0,0.0087890625,0,0)" xlink:href="#X"/><use transform="matrix(0.0087890625,0,0,0.0087890625,17.0068359375,0)" xlink:href="#N"/><use transform="matrix(0.0087890625,0,0,0.0087890625,27.140625,0)" xlink:href="#R"/><use transform="matrix(0.0087890625,0,0,0.0087890625,35.26171875,0)" xlink:href="#R"/><use transform="matrix(0.0087890625,0,0,0.0087890625,43.3828125,0)" xlink:href="#N"/></g><path d="M442-233C435-92 546-78 688-86V0H55v-86c123 7 195-27 195-147v-768H63v-97h187v-102c4-240 124-377 362-377 124 0 225 14 272 85 33 50 8 123-32 144-31 17-72 29-121 29-2-96-37-164-135-164-176 0-152 207-154 385h289v97H442v768" id="ay"/><g id="p"><use transform="matrix(0.0087890625,0,0,0.0087890625,0,0)" xlink:href="#Q"/><use transform="matrix(0.0087890625,0,0,0.0087890625,9.6328125,0)" xlink:href="#ay"/><use transform="matrix(0.0087890625,0,0,0.0087890625,16.1015625,0)" xlink:href="#Q"/><use transform="matrix(0.0087890625,0,0,0.0087890625,25.734375,0)" xlink:href="#K"/><use transform="matrix(0.0087890625,0,0,0.0087890625,32.0712890625,0)" xlink:href="#W"/><use transform="matrix(0.0087890625,0,0,0.0087890625,37.4677734375,0)" xlink:href="#M"/><use transform="matrix(0.0087890625,0,0,0.0087890625,47.337890625,0)" xlink:href="#N"/></g><path d="M786-645c-4-191-36-363-223-363-76 0-134 30-175 92s-66 152-73 271h471zm123 393c43 21 51 90 17 136C862-29 744 20 588 20c-331 0-471-225-475-561-4-348 134-577 454-577 327 0 443 231 426 583H311c7 242 67 426 305 426 140 0 234-60 293-143zm-39-1296c-86 110-204 224-319 307h-78v-27c67-88 127-197 178-301h219v21" id="az"/><use transform="matrix(0.0087890625,0,0,0.0087890625,0,0)" xlink:href="#az" id="q"/><g id="r"><use transform="matrix(0.0087890625,0,0,0.0087890625,0,0)" xlink:href="#W"/><use transform="matrix(0.0087890625,0,0,0.0087890625,5.7568359375,0)" xlink:href="#X"/><use transform="matrix(0.0087890625,0,0,0.0087890625,22.587890625,0)" xlink:href="#U"/><use transform="matrix(0.0087890625,0,0,0.0087890625,33.6357421875,0)" xlink:href="#L"/><use transform="matrix(0.0087890625,0,0,0.0087890625,44.0244140625,0)" xlink:href="#P"/><use transform="matrix(0.0087890625,0,0,0.0087890625,52.505859375,0)" xlink:href="#K"/><use transform="matrix(0.0087890625,0,0,0.0087890625,58.8427734375,0)" xlink:href="#N"/><use transform="matrix(0.0087890625,0,0,0.0087890625,68.9765625,0)" xlink:href="#Z"/><use transform="matrix(0.0087890625,0,0,0.0087890625,80.4111328125,0)" xlink:href="#K"/><use transform="matrix(0.0087890625,0,0,0.0087890625,86.572265625,0)" xlink:href="#Q"/><use transform="matrix(0.0087890625,0,0,0.0087890625,96.205078125,0)" xlink:href="#ad"/></g><path d="M686-1462c328 4 559 115 559 434 0 359-281 480-674 469v328c-1 81 30 122 109 122h125V0H57v-109h86c83 3 106-49 105-133v-987c1-82-26-125-105-125H57v-108h629zm215 442c0-195-55-324-250-321h-80v663h50c215 5 280-127 280-342" id="aA"/><path d="M811-1321c2-107-74-131-182-127v-108h493v1304c-2 111 68 146 178 143V0H903l-57-160h-19C768-53 677 20 512 20 192 20 94-217 94-547s95-575 414-575c154 0 247 67 305 164h14c-9-120-19-232-16-363zM600-133c203 0 211-207 211-418 0-170-13-323-109-393-48-34-143-39-190 0-88 74-102 228-102 395 0 139 15 244 44 313s77 103 146 103" id="aB"/><path d="M51-451v-215h533v215H51" id="aC"/><path d="M248-1221c1-84-22-133-105-133H57v-108h1137l8 377h-143c-13-120-11-252-141-252H573v512h486v123H573v577h410c128-4 125-141 147-252h142L1257 0H57v-109h86c79 3 105-42 105-122v-990" id="aD"/><path d="M508 250c-2 110 76 140 190 133v109H27V383c104 5 170-31 170-133V-846c3-105-46-149-152-143v-109h401l37 160h9c59-105 150-180 313-180 324 0 420 241 420 573 0 329-93 565-412 570-159 2-247-66-307-164h-14c13 122 18 252 16 389zm0-795c0 210 7 418 209 418 69 0 115-35 147-103 57-120 56-503 0-626-33-71-78-109-145-109-201 0-211 211-211 420" id="aE"/><path d="M952-299c53 28 65 116 26 173C912-25 777 20 604 20 249 20 96-183 96-545c0-366 147-579 502-579 170 0 310 34 380 130 46 63 27 167-26 205-49 36-119 55-213 54-1-102-14-196-69-243-36-31-106-28-144 0-103 75-114 241-114 431 0 139 19 242 57 311s100 103 186 103c149 0 244-68 297-166" id="aF"/><g id="t"><use transform="matrix(0.0087890625,0,0,0.0087890625,0,0)" xlink:href="#aA"/><use transform="matrix(0.0087890625,0,0,0.0087890625,11.4873046875,0)" xlink:href="#ao"/><use transform="matrix(0.0087890625,0,0,0.0087890625,20.267578125,0)" xlink:href="#ah"/><use transform="matrix(0.0087890625,0,0,0.0087890625,30.5419921875,0)" xlink:href="#aq"/><use transform="matrix(0.0087890625,0,0,0.0087890625,42.5478515625,0)" xlink:href="#aB"/><use transform="matrix(0.0087890625,0,0,0.0087890625,54.228515625,0)" xlink:href="#am"/><use transform="matrix(0.0087890625,0,0,0.0087890625,65.794921875,0)" xlink:href="#aC"/><use transform="matrix(0.0087890625,0,0,0.0087890625,71.3759765625,0)" xlink:href="#aD"/><use transform="matrix(0.0087890625,0,0,0.0087890625,83.126953125,0)" xlink:href="#ao"/><use transform="matrix(0.0087890625,0,0,0.0087890625,91.9072265625,0)" xlink:href="#aE"/><use transform="matrix(0.0087890625,0,0,0.0087890625,103.517578125,0)" xlink:href="#ah"/><use transform="matrix(0.0087890625,0,0,0.0087890625,113.7919921875,0)" xlink:href="#aF"/><use transform="matrix(0.0087890625,0,0,0.0087890625,123.275390625,0)" xlink:href="#ag"/><use transform="matrix(0.0087890625,0,0,0.0087890625,130.5615234375,0)" xlink:href="#ai"/><use transform="matrix(0.0087890625,0,0,0.0087890625,139.974609375,0)" xlink:href="#aj"/><use transform="matrix(0.0087890625,0,0,0.0087890625,150.7587890625,0)" xlink:href="#ar"/></g><path d="M457-733c0 340 76 592 413 590 189-1 297-89 379-195 43 38 45 120 12 178-72 126-231 182-440 180-475-5-708-280-708-753 0-354 144-589 399-695 222-92 634-71 745 90 51 74 23 182-37 220-47 30-110 51-190 51-4-161-63-285-225-285-310 0-348 300-348 619" id="aG"/><path d="M808-902c34-64-24-97-95-93v-103h516v103c-139 11-204 77-289 174L811-674l272 406c58 83 112 150 220 159V0c-189-2-347 7-443-82-27-24-53-58-80-100L598-469l-82 61v166c0 102 66 138 170 133V0H35v-109c104 5 170-31 170-133v-1081c0-98-69-130-170-125v-108h481c-4 334 9 683-10 1003l258-289c23-25 36-45 44-60" id="aH"/><g id="u"><use transform="matrix(0.0087890625,0,0,0.0087890625,0,0)" xlink:href="#aG"/><use transform="matrix(0.0087890625,0,0,0.0087890625,12.0234375,0)" xlink:href="#ai"/><use transform="matrix(0.0087890625,0,0,0.0087890625,21.4365234375,0)" xlink:href="#aj"/><use transform="matrix(0.0087890625,0,0,0.0087890625,32.220703125,0)" xlink:href="#af"/><use transform="matrix(0.0087890625,0,0,0.0087890625,44.2265625,0)" xlink:href="#aH"/><use transform="matrix(0.0087890625,0,0,0.0087890625,55.142578125,0)" xlink:href="#aC"/><use transform="matrix(0.0087890625,0,0,0.0087890625,60.7236328125,0)" xlink:href="#av"/><use transform="matrix(0.0087890625,0,0,0.0087890625,74.9091796875,0)" xlink:href="#at"/><use transform="matrix(0.0087890625,0,0,0.0087890625,81.24609375,0)" xlink:href="#aF"/><use transform="matrix(0.0087890625,0,0,0.0087890625,90.7294921875,0)" xlink:href="#am"/><use transform="matrix(0.0087890625,0,0,0.0087890625,101.759765625,0)" xlink:href="#ar"/><use transform="matrix(0.0087890625,0,0,0.0087890625,108.0966796875,0)" xlink:href="#ao"/><use transform="matrix(0.0087890625,0,0,0.0087890625,116.876953125,0)" xlink:href="#am"/><use transform="matrix(0.0087890625,0,0,0.0087890625,127.9072265625,0)" xlink:href="#af"/></g><g id="v"><use transform="matrix(0.0087890625,0,0,0.0087890625,0,0)" xlink:href="#am"/><use transform="matrix(0.0087890625,0,0,0.0087890625,11.0302734375,0)" xlink:href="#aq"/></g><path d="M571-231c-1 80 27 122 105 122h88V0H57v-109h86c78 2 105-42 105-122v-998c1-81-27-125-105-125H57v-108h660c193 0 335 32 425 97s136 159 136 282c0 215-126 322-279 387l244 420c54 79 90 162 213 167V0c-184 1-347 0-436-91-24-25-49-55-70-93L707-635H571v404zm363-824c0-187-65-291-252-286H571v587h115c189 4 248-113 248-301" id="aI"/><path d="M989-1176c100-1 171 61 141 162-15 52-67 72-139 72 6-81-87-108-145-64 55 64 100 147 100 261 0 285-225 385-532 352-36 22-74 49-74 104 0 49 44 66 96 66h248c235 2 393 83 393 313 0 316-265 402-594 402-161 0-282-24-361-72S4 300 4 207C4 44 119-17 281-31c-76-32-150-78-150-182 0-121 101-163 182-215-125-48-209-148-209-317 0-256 154-379 428-379 96 0 183 29 244 63 52-55 107-114 213-115zM428 47c-110 0-183 43-182 156 2 128 101 165 241 166 120 0 207-17 262-52s82-86 82-153c0-96-64-117-165-117H428zm96-1048c-124 0-141 127-141 256 0 125 22 237 143 237 124 0 140-114 140-240 0-130-17-253-142-253" id="aJ"/><g id="w"><use transform="matrix(0.0087890625,0,0,0.0087890625,0,0)" xlink:href="#aI"/><use transform="matrix(0.0087890625,0,0,0.0087890625,12.55078125,0)" xlink:href="#aq"/><use transform="matrix(0.0087890625,0,0,0.0087890625,24.556640625,0)" xlink:href="#af"/><use transform="matrix(0.0087890625,0,0,0.0087890625,36.5625,0)" xlink:href="#aJ"/><use transform="matrix(0.0087890625,0,0,0.0087890625,46.4677734375,0)" xlink:href="#ah"/></g><path d="M678-1354c-83-3-108 49-107 133v478c124-137 254-270 373-411 34-40 62-77 62-142 0-58-46-57-115-60v-106h555v106c-148 8-219 96-295 180L881-879l381 605c59 86 104 164 241 165V0c-191 0-383 7-483-82-34-30-57-65-82-106L662-659l-91 71v346c-1 84 24 133 107 133h86V0H57v-109h86c79 3 105-42 105-122v-998c1-82-26-125-105-125H57v-108h707v108h-86" id="aK"/><g id="x"><use transform="matrix(0.0087890625,0,0,0.0087890625,0,0)" xlink:href="#aK"/><use transform="matrix(0.0087890625,0,0,0.0087890625,12.849609375,0)" xlink:href="#aq"/><use transform="matrix(0.0087890625,0,0,0.0087890625,24.85546875,0)" xlink:href="#ag"/><use transform="matrix(0.0087890625,0,0,0.0087890625,32.1416015625,0)" xlink:href="#ag"/><use transform="matrix(0.0087890625,0,0,0.0087890625,39.427734375,0)" xlink:href="#aj"/></g><g id="y"><use transform="matrix(0.0087890625,0,0,0.0087890625,0,0)" xlink:href="#aD"/><use transform="matrix(0.0087890625,0,0,0.0087890625,11.7509765625,0)" xlink:href="#an"/><use transform="matrix(0.0087890625,0,0,0.0087890625,22.482421875,0)" xlink:href="#am"/><use transform="matrix(0.0087890625,0,0,0.0087890625,33.5126953125,0)" xlink:href="#ar"/><use transform="matrix(0.0087890625,0,0,0.0087890625,39.849609375,0)" xlink:href="#aq"/><use transform="matrix(0.0087890625,0,0,0.0087890625,51.85546875,0)" xlink:href="#ak"/><use transform="matrix(0.0087890625,0,0,0.0087890625,61.3388671875,0)" xlink:href="#al"/><use transform="matrix(0.0087890625,0,0,0.0087890625,72.123046875,0)" xlink:href="#am"/></g><g id="z"><use transform="matrix(0.0087890625,0,0,0.0087890625,0,0)" xlink:href="#ah"/><use transform="matrix(0.0087890625,0,0,0.0087890625,10.2744140625,0)" xlink:href="#au"/></g><g id="A"><use transform="matrix(0.0087890625,0,0,0.0087890625,0,0)" xlink:href="#ag"/><use transform="matrix(0.0087890625,0,0,0.0087890625,7.1103515625,0)" xlink:href="#ah"/><use transform="matrix(0.0087890625,0,0,0.0087890625,17.384765625,0)" xlink:href="#au"/><use transform="matrix(0.0087890625,0,0,0.0087890625,34.9541015625,0)" xlink:href="#aE"/><use transform="matrix(0.0087890625,0,0,0.0087890625,46.564453125,0)" xlink:href="#am"/></g><path d="M526-129c139 0 193-116 193-262v-154c-144 3-272 20-298 142-6 28-11 61-11 98 1 103 24 176 116 176zm193-524c-6-153 30-348-127-346-115 1-136 103-137 221-92 0-160-13-207-31-80-31-88-141-36-202 75-88 224-112 388-113 266-2 430 83 430 348v522c-3 99 29 152 131 145V0H780l-43-141h-18C646-52 578 24 414 20 206 14 92-101 92-313c0-254 188-323 459-334zm-252-615c68-92 146-194 198-301h322v21c-99 115-248 224-381 307H467v-27" id="aL"/><g id="B"><use transform="matrix(0.0087890625,0,0,0.0087890625,0,0)" xlink:href="#at"/><use transform="matrix(0.0087890625,0,0,0.0087890625,6.3369140625,0)" xlink:href="#au"/><use transform="matrix(0.0087890625,0,0,0.0087890625,24.08203125,0)" xlink:href="#aj"/><use transform="matrix(0.0087890625,0,0,0.0087890625,34.8662109375,0)" xlink:href="#aJ"/><use transform="matrix(0.0087890625,0,0,0.0087890625,44.947265625,0)" xlink:href="#at"/><use transform="matrix(0.0087890625,0,0,0.0087890625,51.2841796875,0)" xlink:href="#af"/><use transform="matrix(0.0087890625,0,0,0.0087890625,63.2900390625,0)" xlink:href="#aL"/><use transform="matrix(0.0087890625,0,0,0.0087890625,74.07421875,0)" xlink:href="#ai"/><use transform="matrix(0.0087890625,0,0,0.0087890625,83.4873046875,0)" xlink:href="#at"/><use transform="matrix(0.0087890625,0,0,0.0087890625,89.82421875,0)" xlink:href="#am"/></g><path d="M645-659v366H498v-366H133v-146h365v-366h147v366h367v146H645" id="aM"/><use transform="matrix(0.0087890625,0,0,0.0087890625,0,0)" xlink:href="#aM" id="C"/><path d="M113-735c0-470 225-750 696-750 351 0 554 176 645 443 60 178 61 438 0 617-92 268-294 445-647 445-471 0-694-285-694-755zm533-575c-200 121-216 527-170 839 29 198 110 358 331 358 307 0 348-302 348-620 0-257-33-477-185-577-82-56-239-51-324 0" id="aN"/><path d="M754-139c126 1 123-128 147-232h121L1012 0H37v-84l604-874H342c-103 2-102 109-129 192H90l25-332h884v88L393-139h361" id="aO"/><g id="D"><use transform="matrix(0.0087890625,0,0,0.0087890625,0,0)" xlink:href="#aN"/><use transform="matrix(0.0087890625,0,0,0.0087890625,14.16796875,0)" xlink:href="#ai"/><use transform="matrix(0.0087890625,0,0,0.0087890625,23.5810546875,0)" xlink:href="#ag"/><use transform="matrix(0.0087890625,0,0,0.0087890625,30.5068359375,0)" xlink:href="#am"/><use transform="matrix(0.0087890625,0,0,0.0087890625,41.361328125,0)" xlink:href="#aJ"/><use transform="matrix(0.0087890625,0,0,0.0087890625,51.2666015625,0)" xlink:href="#am"/><use transform="matrix(0.0087890625,0,0,0.0087890625,62.296875,0)" xlink:href="#af"/><use transform="matrix(0.0087890625,0,0,0.0087890625,74.302734375,0)" xlink:href="#aj"/><use transform="matrix(0.0087890625,0,0,0.0087890625,85.0869140625,0)" xlink:href="#ar"/><use transform="matrix(0.0087890625,0,0,0.0087890625,91.423828125,0)" xlink:href="#at"/><use transform="matrix(0.0087890625,0,0,0.0087890625,97.7607421875,0)" xlink:href="#aO"/><use transform="matrix(0.0087890625,0,0,0.0087890625,107.279296875,0)" xlink:href="#aj"/><use transform="matrix(0.0087890625,0,0,0.0087890625,118.0634765625,0)" xlink:href="#ak"/><use transform="matrix(0.0087890625,0,0,0.0087890625,127.546875,0)" xlink:href="#al"/><use transform="matrix(0.0087890625,0,0,0.0087890625,138.3310546875,0)" xlink:href="#am"/></g><g id="E"><use transform="matrix(0.0087890625,0,0,0.0087890625,0,0)" xlink:href="#aB"/><use transform="matrix(0.0087890625,0,0,0.0087890625,11.6806640625,0)" xlink:href="#ah"/></g><path d="M1370-90C1220-22 1072 20 866 20c-492 0-753-265-753-753 0-363 164-592 433-695 241-92 683-73 811 90 57 72 27 178-36 216-50 30-114 51-197 51-2-174-80-281-254-281-337 0-413 275-413 619 0 354 90 613 440 614 54 0 105-4 150-14v-301c2-116-57-150-173-146v-108h644v108c-113-11-148 47-148 154v336" id="aP"/><path d="M1169-254c-4 106 37 152 144 145V0H858v-674c-2-147-22-276-164-276-152 0-178 160-178 317v391c-3 102 51 138 154 133V0H41v-109c107 5 164-34 164-141v-1073c0-98-69-130-170-125v-108h481c-1 203 6 416-16 598h18c56-113 145-169 313-166 240 5 338 149 338 395v475" id="aQ"/><g id="F"><use transform="matrix(0.0087890625,0,0,0.0087890625,0,0)" xlink:href="#aP"/><use transform="matrix(0.0087890625,0,0,0.0087890625,13.8427734375,0)" xlink:href="#ai"/><use transform="matrix(0.0087890625,0,0,0.0087890625,23.255859375,0)" xlink:href="#aj"/><use transform="matrix(0.0087890625,0,0,0.0087890625,34.0400390625,0)" xlink:href="#au"/><use transform="matrix(0.0087890625,0,0,0.0087890625,51.78515625,0)" xlink:href="#aC"/><use transform="matrix(0.0087890625,0,0,0.0087890625,57.3662109375,0)" xlink:href="#as"/><use transform="matrix(0.0087890625,0,0,0.0087890625,67.9130859375,0)" xlink:href="#aF"/><use transform="matrix(0.0087890625,0,0,0.0087890625,77.396484375,0)" xlink:href="#aQ"/><use transform="matrix(0.0087890625,0,0,0.0087890625,89.40234375,0)" xlink:href="#au"/><use transform="matrix(0.0087890625,0,0,0.0087890625,107.1474609375,0)" xlink:href="#at"/><use transform="matrix(0.0087890625,0,0,0.0087890625,113.484375,0)" xlink:href="#aB"/><use transform="matrix(0.0087890625,0,0,0.0087890625,125.1650390625,0)" xlink:href="#ag"/></g><g id="G"><use transform="matrix(0.0087890625,0,0,0.0087890625,0,0)" xlink:href="#ap"/><use transform="matrix(0.0087890625,0,0,0.0087890625,13.1923828125,0)" xlink:href="#aq"/><use transform="matrix(0.0087890625,0,0,0.0087890625,25.1982421875,0)" xlink:href="#ag"/><use transform="matrix(0.0087890625,0,0,0.0087890625,32.1240234375,0)" xlink:href="#am"/><use transform="matrix(0.0087890625,0,0,0.0087890625,42.978515625,0)" xlink:href="#an"/><use transform="matrix(0.0087890625,0,0,0.0087890625,53.33203125,0)" xlink:href="#aj"/><use transform="matrix(0.0087890625,0,0,0.0087890625,64.1162109375,0)" xlink:href="#ar"/><use transform="matrix(0.0087890625,0,0,0.0087890625,70.453125,0)" xlink:href="#am"/><use transform="matrix(0.0087890625,0,0,0.0087890625,81.4833984375,0)" xlink:href="#ai"/><use transform="matrix(0.0087890625,0,0,0.0087890625,90.896484375,0)" xlink:href="#ah"/><use transform="matrix(0.0087890625,0,0,0.0087890625,101.1708984375,0)" xlink:href="#ao"/></g><path d="M705-989c-62 1-123 3-123 59 0 45 20 61 47 94l114 140c44-57 101-111 135-176 9-19 13-37 13-56 0-57-52-60-111-61v-109h473v109c-126-6-167 60-225 131L817-600l301 383c57 65 88 109 191 108V0H657v-109c112 6 164-41 120-119-47-83-123-156-181-231-57 77-127 143-174 229-9 17-12 35-12 52 0 61 56 68 133 69V0H23v-109c133 7 180-58 241-131l258-311-258-330c-54-63-97-112-203-108v-109h644v109" id="aR"/><g id="H"><use transform="matrix(0.0087890625,0,0,0.0087890625,0,0)" xlink:href="#aj"/><use transform="matrix(0.0087890625,0,0,0.0087890625,10.7841796875,0)" xlink:href="#aE"/><use transform="matrix(0.0087890625,0,0,0.0087890625,22.39453125,0)" xlink:href="#ai"/><use transform="matrix(0.0087890625,0,0,0.0087890625,31.6318359375,0)" xlink:href="#am"/><use transform="matrix(0.0087890625,0,0,0.0087890625,42.3017578125,0)" xlink:href="#aR"/><use transform="matrix(0.0087890625,0,0,0.0087890625,53.9296875,0)" xlink:href="#at"/><use transform="matrix(0.0087890625,0,0,0.0087890625,60.2666015625,0)" xlink:href="#au"/><use transform="matrix(0.0087890625,0,0,0.0087890625,78.01171875,0)" xlink:href="#aj"/><use transform="matrix(0.0087890625,0,0,0.0087890625,88.7958984375,0)" xlink:href="#aB"/><use transform="matrix(0.0087890625,0,0,0.0087890625,100.4765625,0)" xlink:href="#am"/><use transform="matrix(0.0087890625,0,0,0.0087890625,111.5068359375,0)" xlink:href="#ao"/></g></defs></g></svg>